<svg width="197" height="178" viewBox="0 0 197 178" fill="none" xmlns="http://www.w3.org/2000/svg">
<path d="M194.929 14.5703C187.442 15.1693 181.49 16.1051 177.072 17.3779C172.73 18.5758 169.847 20.8594 168.425 24.2285L106.657 177.861H95.0898L28.6055 25.8008C25.8353 19.6615 17.1878 15.918 2.66309 14.5703C1.3903 9.62891 1.54004 4.7998 3.1123 0.0830078C37.777 1.13118 67.8372 1.28092 93.293 0.532227C94.7904 4.7998 94.7904 9.55404 93.293 14.7949C83.6348 15.5436 77.5703 16.3672 75.0996 17.2656C72.6289 18.1641 71.9176 19.9984 72.9658 22.7686L111.486 112.275L147.087 22.7686C147.536 21.5706 147.199 20.5225 146.076 19.624C145.028 18.6507 143.231 17.8646 140.686 17.2656C138.215 16.6667 135.707 16.18 133.161 15.8057C130.616 15.4313 127.508 15.0944 123.84 14.7949C122.642 9.85352 122.792 5.02441 124.289 0.307617C148.996 1.20605 172.393 1.13118 194.479 0.0830078C195.977 4.7998 196.127 9.62891 194.929 14.5703ZM191.223 10.1904C191.822 8.01921 191.822 6.25977 191.223 4.91211C181.415 5.36133 171.382 5.58594 161.125 5.58594C151.317 5.58594 140.199 5.36133 127.771 4.91211C127.172 6.25977 127.172 8.01921 127.771 10.1904C131.14 10.4899 133.947 10.7894 136.193 11.0889C138.514 11.3883 141.322 11.9499 144.616 12.7734C147.91 13.597 150.194 14.8698 151.467 16.5918C152.814 18.3138 153.039 20.2979 152.141 22.5439L105.646 139.453L56.0078 24.0039C53.8366 18.9128 54.6976 15.6185 58.5908 14.1211C62.5589 12.5488 72.6663 11.2386 88.9131 10.1904C89.512 8.01921 89.512 6.25977 88.9131 4.91211C66.8265 5.96029 39.3118 5.96029 6.36914 4.91211C5.69531 6.25977 5.69531 8.01921 6.36914 10.1904C20.4447 11.5381 29.2419 16.1426 32.7607 24.0039L98.1221 173.257H103.4L164.157 22.5439C166.254 18.2764 169.548 15.319 174.04 13.6719C178.607 11.9499 184.335 10.7894 191.223 10.1904Z" fill="url(#paint0_linear_223_12)"/>
<defs>
<linearGradient id="paint0_linear_223_12" x1="-35.7804" y1="86.5" x2="196" y2="86.5" gradientUnits="userSpaceOnUse">
<stop stop-color="#5A31FF"/>
<stop offset="1" stop-color="#00ABFC"/>
</linearGradient>
</defs>
</svg>
